<?xml version="1.0" encoding="iso-8859-1"?>
<!-- Generator: Adobe Illustrator 19.0.0, SVG Export Plug-In . SVG Version: 6.00 Build 0)  -->
<svg version="1.1" id="Capa_1" xmlns="http://www.w3.org/2000/svg" xmlns:xlink="http://www.w3.org/1999/xlink" x="0px" y="0px"
	 viewBox="0 0 512 512" style="enable-background:new 0 0 512 512;" xml:space="preserve">
<g>
	<g>
		<g>
			<path d="M472,412c-11.046,0-20,8.954-20,20c0,22.056-17.944,40-40,40H100c-22.056,0-40-17.944-40-40V210c0-11.046-8.954-20-20-20
				s-20,8.954-20,20v222c0,44.112,35.888,80,80,80h312c44.112,0,80-35.888,80-80C492,420.954,483.046,412,472,412z"/>
			<path d="M452,0H60C26.916,0,0,26.916,0,60v60c0,11.046,8.954,20,20,20h432v191c0,11.046,8.954,20,20,20c11.046,0,20-8.954,20-20
				V140c11.046,0,20-8.954,20-20V60C512,26.916,485.084,0,452,0z M472,100H40V60c0-11.028,8.972-20,20-20h392
				c11.028,0,20,8.972,20,20V100z"/>
			<path d="M300,220c11.046,0,20-8.954,20-20s-8.954-20-20-20h-90c-11.046,0-20,8.954-20,20s8.954,20,20,20H300z"/>
		</g>
	</g>
</g>
<g>
</g>
<g>
</g>
<g>
</g>
<g>
</g>
<g>
</g>
<g>
</g>
<g>
</g>
<g>
</g>
<g>
</g>
<g>
</g>
<g>
</g>
<g>
</g>
<g>
</g>
<g>
</g>
<g>
</g>
</svg>
